<svg xmlns="http://www.w3.org/2000/svg" xmlns:xlink="http://www.w3.org/1999/xlink" width="16" height="16" viewBox="0 0 16 16">
  <defs>
    <clipPath id="clip-path">
      <rect width="16" height="16" fill="none"/>
    </clipPath>
  </defs>
  <g id="Social_Icons_16px_Facebook" data-name="Social Icons – 16px / Facebook" clip-path="url(#clip-path)">
    <path id="Icon" d="M15.117,0H.883A.883.883,0,0,0,0,.883V15.117A.883.883,0,0,0,.883,16H8.552V9.812H6.469V7.39H8.552V5.608a2.91,2.91,0,0,1,3.106-3.192,17.71,17.71,0,0,1,1.859.094V4.67H12.248c-1,0-1.2.474-1.2,1.175V7.388h2.4L13.137,9.81h-2.1V16h4.083A.883.883,0,0,0,16,15.117V.883A.883.883,0,0,0,15.117,0Z" transform="translate(0 0)" fill="#efece5"/>
  </g>
</svg>
